<svg width="17" height="17" viewBox="0 0 17 17" fill="none" xmlns="http://www.w3.org/2000/svg">
<circle cx="8.5" cy="8.5" r="7.5" fill="#1F2242" stroke="#826DF9"/>
<mask id="mask0" style="mask-type:alpha" maskUnits="userSpaceOnUse" x="5" y="5" width="7" height="7">
<rect x="5" y="5" width="7" height="7" fill="#C4C4C4"/>
</mask>
<g mask="url(#mask0)">
<path d="M8.84159 5.45562C8.84159 5.45562 7.81214 5.46046 7.25476 5.46961L7.40799 5L5.3042 6.4142L6.71758 7.85046L6.84781 7.45454C6.87138 7.36256 6.94828 7.29962 7.04427 7.29962L8.47898 7.30339C8.57552 7.30339 8.65916 7.23937 8.67993 7.149L8.78096 6.71167L10.1949 8.14578L8.08999 9.55352L8.09111 9.54976L8.32574 8.85853H8.32518H6.93481C6.60251 8.85853 6.30839 9.06348 6.20567 9.36633L5.31262 12H7.25981L7.61063 10.965C7.63982 10.8795 7.72289 10.8214 7.81663 10.8214H8.84159C10.388 10.8214 11.6414 9.62023 11.6414 8.13825C11.642 6.6568 10.388 5.45562 8.84159 5.45562Z" fill="url(#paint0_linear)"/>
</g>
<defs>
<linearGradient id="paint0_linear" x1="8.47316" y1="4.99991" x2="8.47316" y2="12.0004" gradientUnits="userSpaceOnUse">
<stop stop-color="#826DF9"/>
<stop offset="0.2826" stop-color="#7F6DF9"/>
<stop offset="0.5233" stop-color="#746FFA"/>
<stop offset="0.7488" stop-color="#6371FC"/>
<stop offset="0.9637" stop-color="#4A74FF"/>
<stop offset="1" stop-color="#4575FF"/>
</linearGradient>
</defs>
</svg>
